<mxfile host="Electron" modified="2024-04-30T02:54:09.324Z" agent="Mozilla/5.0 (Windows NT 10.0; Win64; x64) AppleWebKit/537.36 (KHTML, like Gecko) draw.io/22.0.2 Chrome/114.0.5735.289 Electron/25.8.4 Safari/537.36" etag="a300vq0umgdiZmWH33lK" version="22.0.2" type="device">
  <diagram name="第 1 页" id="Swf7uyS4yp4CafleX0ra">
    <mxGraphModel dx="4302" dy="1061" grid="1" gridSize="10" guides="1" tooltips="1" connect="1" arrows="1" fold="1" page="1" pageScale="1" pageWidth="827" pageHeight="1169" math="0" shadow="0">
      <root>
        <mxCell id="0" />
        <mxCell id="1" parent="0" />
        <mxCell id="ba-7oyt0z8voXFTzTS6v-88" value="" style="whiteSpace=wrap;html=1;shape=mxgraph.basic.roundRectCallout;dx=356.49;dy=81;size=5;boundedLbl=1;rotation=90;fillColor=none;strokeWidth=2;" parent="1" vertex="1">
          <mxGeometry x="-183.96" y="32.4" width="862.82" height="1286.88" as="geometry" />
        </mxCell>
        <mxCell id="XQVcX5hq3e3qukLkaY1j-18" value="" style="rounded=0;whiteSpace=wrap;html=1;fillColor=none;shadow=0;" parent="1" vertex="1">
          <mxGeometry x="-750" y="130" width="910" height="100" as="geometry" />
        </mxCell>
        <mxCell id="XQVcX5hq3e3qukLkaY1j-9" value="" style="rounded=1;whiteSpace=wrap;html=1;fillColor=none;dashed=1;dashPattern=8 8;shadow=0;" parent="1" vertex="1">
          <mxGeometry x="-120" y="285" width="590" height="90" as="geometry" />
        </mxCell>
        <mxCell id="XQVcX5hq3e3qukLkaY1j-10" value="" style="rounded=1;whiteSpace=wrap;html=1;fillColor=none;dashed=1;dashPattern=8 8;shadow=0;" parent="1" vertex="1">
          <mxGeometry x="-120" y="403" width="590" height="90" as="geometry" />
        </mxCell>
        <mxCell id="XQVcX5hq3e3qukLkaY1j-1" value="&lt;font size=&quot;1&quot; style=&quot;&quot;&gt;&lt;b style=&quot;font-size: 25px;&quot;&gt;A1&lt;/b&gt;&lt;/font&gt;" style="rounded=1;whiteSpace=wrap;html=1;fillColor=#fff2cc;strokeColor=#d6b656;shadow=0;" parent="1" vertex="1">
          <mxGeometry x="-100" y="300" width="120" height="60" as="geometry" />
        </mxCell>
        <mxCell id="XQVcX5hq3e3qukLkaY1j-2" value="&lt;b style=&quot;border-color: var(--border-color); font-size: 25px;&quot;&gt;B1&lt;/b&gt;" style="rounded=1;whiteSpace=wrap;html=1;fillColor=#dae8fc;strokeColor=#6c8ebf;shadow=0;" parent="1" vertex="1">
          <mxGeometry x="-100" y="418" width="120" height="60" as="geometry" />
        </mxCell>
        <mxCell id="XQVcX5hq3e3qukLkaY1j-3" value="&lt;b style=&quot;border-color: var(--border-color); font-size: 25px;&quot;&gt;A2&lt;/b&gt;" style="rounded=1;whiteSpace=wrap;html=1;fillColor=#fff2cc;strokeColor=#d6b656;shadow=0;" parent="1" vertex="1">
          <mxGeometry x="40" y="300" width="120" height="60" as="geometry" />
        </mxCell>
        <mxCell id="XQVcX5hq3e3qukLkaY1j-4" value="&lt;b style=&quot;border-color: var(--border-color); font-size: 25px;&quot;&gt;A3&lt;/b&gt;" style="rounded=1;whiteSpace=wrap;html=1;fillColor=#fff2cc;strokeColor=#d6b656;shadow=0;" parent="1" vertex="1">
          <mxGeometry x="183.5" y="300" width="120" height="60" as="geometry" />
        </mxCell>
        <mxCell id="XQVcX5hq3e3qukLkaY1j-5" value="&lt;b style=&quot;border-color: var(--border-color); font-size: 25px;&quot;&gt;A4&lt;/b&gt;" style="rounded=1;whiteSpace=wrap;html=1;fillColor=#fff2cc;strokeColor=#d6b656;shadow=0;" parent="1" vertex="1">
          <mxGeometry x="330" y="300" width="120" height="60" as="geometry" />
        </mxCell>
        <mxCell id="XQVcX5hq3e3qukLkaY1j-6" value="&lt;b style=&quot;border-color: var(--border-color); font-size: 25px;&quot;&gt;B2&lt;/b&gt;" style="rounded=1;whiteSpace=wrap;html=1;fillColor=#dae8fc;strokeColor=#6c8ebf;shadow=0;" parent="1" vertex="1">
          <mxGeometry x="40" y="418" width="120" height="60" as="geometry" />
        </mxCell>
        <mxCell id="XQVcX5hq3e3qukLkaY1j-7" value="&lt;b style=&quot;border-color: var(--border-color); font-size: 25px;&quot;&gt;B3&lt;/b&gt;" style="rounded=1;whiteSpace=wrap;html=1;fillColor=#dae8fc;strokeColor=#6c8ebf;shadow=0;" parent="1" vertex="1">
          <mxGeometry x="184" y="418" width="120" height="60" as="geometry" />
        </mxCell>
        <mxCell id="XQVcX5hq3e3qukLkaY1j-8" value="&lt;b style=&quot;border-color: var(--border-color); font-size: 25px;&quot;&gt;B4&lt;/b&gt;" style="rounded=1;whiteSpace=wrap;html=1;fillColor=#dae8fc;strokeColor=#6c8ebf;shadow=0;" parent="1" vertex="1">
          <mxGeometry x="330" y="418" width="120" height="60" as="geometry" />
        </mxCell>
        <mxCell id="XQVcX5hq3e3qukLkaY1j-14" value="" style="rounded=1;whiteSpace=wrap;html=1;fillColor=none;strokeColor=#b85450;strokeWidth=5;dashed=1;shadow=0;" parent="1" vertex="1">
          <mxGeometry x="-135" y="270" width="620" height="120" as="geometry" />
        </mxCell>
        <mxCell id="XQVcX5hq3e3qukLkaY1j-16" value="&lt;b style=&quot;font-size: 30px;&quot;&gt;&lt;font style=&quot;font-size: 30px;&quot;&gt;Margin befor Deadline:&lt;/font&gt;&lt;/b&gt;" style="text;strokeColor=none;align=center;fillColor=none;html=1;verticalAlign=middle;whiteSpace=wrap;rounded=0;shadow=0;fontSize=30;" parent="1" vertex="1">
          <mxGeometry x="-570" y="144" width="490" height="30" as="geometry" />
        </mxCell>
        <mxCell id="XQVcX5hq3e3qukLkaY1j-17" value="&lt;b style=&quot;font-size: 30px;&quot;&gt;&lt;font style=&quot;font-size: 30px;&quot;&gt;&lt;font color=&quot;#cc0000&quot; style=&quot;font-size: 30px;&quot;&gt;A: 40ms&lt;/font&gt;&amp;nbsp; &amp;nbsp; &amp;nbsp; &amp;nbsp; &amp;nbsp; B: 60ms&amp;nbsp; &amp;nbsp; &amp;nbsp; &amp;nbsp; &amp;nbsp; C: 120ms&lt;/font&gt;&lt;/b&gt;" style="text;strokeColor=none;align=center;fillColor=none;html=1;verticalAlign=middle;whiteSpace=wrap;rounded=0;shadow=0;fontSize=30;" parent="1" vertex="1">
          <mxGeometry x="-590" y="190" width="557" height="30" as="geometry" />
        </mxCell>
        <mxCell id="XQVcX5hq3e3qukLkaY1j-19" value="&lt;b&gt;&lt;font style=&quot;font-size: 30px;&quot;&gt;Model B&lt;/font&gt;&lt;/b&gt;" style="text;strokeColor=none;align=center;fillColor=none;html=1;verticalAlign=middle;whiteSpace=wrap;rounded=0;shadow=0;" parent="1" vertex="1">
          <mxGeometry x="-280" y="433" width="120" height="30" as="geometry" />
        </mxCell>
        <mxCell id="XQVcX5hq3e3qukLkaY1j-20" value="&lt;b&gt;&lt;font style=&quot;font-size: 30px;&quot;&gt;Model A&lt;/font&gt;&lt;/b&gt;" style="text;strokeColor=none;align=center;fillColor=none;html=1;verticalAlign=middle;whiteSpace=wrap;rounded=0;shadow=0;" parent="1" vertex="1">
          <mxGeometry x="-280" y="310" width="120" height="30" as="geometry" />
        </mxCell>
        <mxCell id="XQVcX5hq3e3qukLkaY1j-22" value="&lt;b&gt;&lt;font style=&quot;font-size: 30px;&quot;&gt;Margin of A:&lt;br&gt;40 - 20 = &lt;font color=&quot;#009900&quot;&gt;20ms&lt;/font&gt;&lt;br&gt;&lt;/font&gt;&lt;/b&gt;" style="text;strokeColor=none;align=center;fillColor=none;html=1;verticalAlign=middle;whiteSpace=wrap;rounded=0;shadow=0;" parent="1" vertex="1">
          <mxGeometry x="450" y="403" width="360" height="30" as="geometry" />
        </mxCell>
        <mxCell id="XQVcX5hq3e3qukLkaY1j-23" value="&lt;b&gt;&lt;font style=&quot;font-size: 30px;&quot;&gt;Cost = 20ms&lt;/font&gt;&lt;/b&gt;" style="text;strokeColor=none;align=center;fillColor=none;html=1;verticalAlign=middle;whiteSpace=wrap;rounded=0;shadow=0;" parent="1" vertex="1">
          <mxGeometry x="440" y="300" width="360" height="30" as="geometry" />
        </mxCell>
        <mxCell id="XQVcX5hq3e3qukLkaY1j-37" value="" style="endArrow=none;dashed=1;html=1;dashPattern=1 3;strokeWidth=2;rounded=0;shadow=0;" parent="1" edge="1">
          <mxGeometry width="50" height="50" relative="1" as="geometry">
            <mxPoint x="-290" y="505" as="sourcePoint" />
            <mxPoint x="530" y="505" as="targetPoint" />
          </mxGeometry>
        </mxCell>
        <mxCell id="XQVcX5hq3e3qukLkaY1j-38" value="" style="shape=flexArrow;endArrow=classic;html=1;rounded=0;width=45;endSize=9.07;endWidth=42;shadow=0;" parent="1" edge="1">
          <mxGeometry width="50" height="50" relative="1" as="geometry">
            <mxPoint x="610" y="480" as="sourcePoint" />
            <mxPoint x="610" y="550" as="targetPoint" />
          </mxGeometry>
        </mxCell>
        <mxCell id="XQVcX5hq3e3qukLkaY1j-39" value="&lt;b&gt;&lt;font style=&quot;font-size: 30px;&quot;&gt;Add B1 &amp;amp; B2&lt;/font&gt;&lt;/b&gt;" style="text;strokeColor=none;align=center;fillColor=none;html=1;verticalAlign=middle;whiteSpace=wrap;rounded=0;shadow=0;" parent="1" vertex="1">
          <mxGeometry x="630" y="493" width="200" height="30" as="geometry" />
        </mxCell>
        <mxCell id="XQVcX5hq3e3qukLkaY1j-42" value="" style="group" parent="1" vertex="1" connectable="0">
          <mxGeometry x="-280" y="535" width="800" height="250" as="geometry" />
        </mxCell>
        <mxCell id="XQVcX5hq3e3qukLkaY1j-111" value="" style="rounded=1;whiteSpace=wrap;html=1;fillColor=#d5e8d4;strokeColor=#82b366;" parent="XQVcX5hq3e3qukLkaY1j-42" vertex="1">
          <mxGeometry x="-10" y="-20" width="810" height="270" as="geometry" />
        </mxCell>
        <mxCell id="XQVcX5hq3e3qukLkaY1j-24" value="" style="rounded=1;whiteSpace=wrap;html=1;fillColor=none;dashed=1;dashPattern=8 8;shadow=0;" parent="XQVcX5hq3e3qukLkaY1j-42" vertex="1">
          <mxGeometry x="160" y="15" width="590" height="90" as="geometry" />
        </mxCell>
        <mxCell id="XQVcX5hq3e3qukLkaY1j-25" value="" style="rounded=1;whiteSpace=wrap;html=1;fillColor=none;dashed=1;dashPattern=8 8;shadow=0;" parent="XQVcX5hq3e3qukLkaY1j-42" vertex="1">
          <mxGeometry x="160" y="133" width="590" height="90" as="geometry" />
        </mxCell>
        <mxCell id="XQVcX5hq3e3qukLkaY1j-26" value="&lt;font size=&quot;1&quot; style=&quot;&quot;&gt;&lt;b style=&quot;font-size: 25px;&quot;&gt;A1&lt;/b&gt;&lt;/font&gt;" style="rounded=1;whiteSpace=wrap;html=1;fillColor=#fff2cc;strokeColor=#d6b656;shadow=0;" parent="XQVcX5hq3e3qukLkaY1j-42" vertex="1">
          <mxGeometry x="180" y="30" width="120" height="60" as="geometry" />
        </mxCell>
        <mxCell id="XQVcX5hq3e3qukLkaY1j-27" value="&lt;b style=&quot;border-color: var(--border-color); font-size: 25px;&quot;&gt;B1&lt;/b&gt;" style="rounded=1;whiteSpace=wrap;html=1;fillColor=#dae8fc;strokeColor=#6c8ebf;shadow=0;" parent="XQVcX5hq3e3qukLkaY1j-42" vertex="1">
          <mxGeometry x="180" y="148" width="120" height="60" as="geometry" />
        </mxCell>
        <mxCell id="XQVcX5hq3e3qukLkaY1j-28" value="&lt;b style=&quot;border-color: var(--border-color); font-size: 25px;&quot;&gt;A2&lt;/b&gt;" style="rounded=1;whiteSpace=wrap;html=1;fillColor=#fff2cc;strokeColor=#d6b656;shadow=0;" parent="XQVcX5hq3e3qukLkaY1j-42" vertex="1">
          <mxGeometry x="320" y="30" width="120" height="60" as="geometry" />
        </mxCell>
        <mxCell id="XQVcX5hq3e3qukLkaY1j-29" value="&lt;b style=&quot;border-color: var(--border-color); font-size: 25px;&quot;&gt;A3&lt;/b&gt;" style="rounded=1;whiteSpace=wrap;html=1;fillColor=#fff2cc;strokeColor=#d6b656;shadow=0;" parent="XQVcX5hq3e3qukLkaY1j-42" vertex="1">
          <mxGeometry x="463.5" y="30" width="120" height="60" as="geometry" />
        </mxCell>
        <mxCell id="XQVcX5hq3e3qukLkaY1j-30" value="&lt;b style=&quot;border-color: var(--border-color); font-size: 25px;&quot;&gt;A4&lt;/b&gt;" style="rounded=1;whiteSpace=wrap;html=1;fillColor=#fff2cc;strokeColor=#d6b656;shadow=0;" parent="XQVcX5hq3e3qukLkaY1j-42" vertex="1">
          <mxGeometry x="610" y="30" width="120" height="60" as="geometry" />
        </mxCell>
        <mxCell id="XQVcX5hq3e3qukLkaY1j-31" value="&lt;b style=&quot;border-color: var(--border-color); font-size: 25px;&quot;&gt;B2&lt;/b&gt;" style="rounded=1;whiteSpace=wrap;html=1;fillColor=#dae8fc;strokeColor=#6c8ebf;shadow=0;" parent="XQVcX5hq3e3qukLkaY1j-42" vertex="1">
          <mxGeometry x="320" y="148" width="120" height="60" as="geometry" />
        </mxCell>
        <mxCell id="XQVcX5hq3e3qukLkaY1j-32" value="&lt;b style=&quot;border-color: var(--border-color); font-size: 25px;&quot;&gt;B3&lt;/b&gt;" style="rounded=1;whiteSpace=wrap;html=1;fillColor=#dae8fc;strokeColor=#6c8ebf;shadow=0;" parent="XQVcX5hq3e3qukLkaY1j-42" vertex="1">
          <mxGeometry x="464" y="148" width="120" height="60" as="geometry" />
        </mxCell>
        <mxCell id="XQVcX5hq3e3qukLkaY1j-33" value="&lt;b style=&quot;border-color: var(--border-color); font-size: 25px;&quot;&gt;B4&lt;/b&gt;" style="rounded=1;whiteSpace=wrap;html=1;fillColor=#dae8fc;strokeColor=#6c8ebf;shadow=0;" parent="XQVcX5hq3e3qukLkaY1j-42" vertex="1">
          <mxGeometry x="610" y="148" width="120" height="60" as="geometry" />
        </mxCell>
        <mxCell id="XQVcX5hq3e3qukLkaY1j-34" value="" style="rounded=1;whiteSpace=wrap;html=1;fillColor=none;strokeColor=#b85450;strokeWidth=5;dashed=1;shadow=0;" parent="XQVcX5hq3e3qukLkaY1j-42" vertex="1">
          <mxGeometry x="145" width="620" height="120" as="geometry" />
        </mxCell>
        <mxCell id="XQVcX5hq3e3qukLkaY1j-35" value="&lt;b&gt;&lt;font style=&quot;font-size: 30px;&quot;&gt;Model B&lt;/font&gt;&lt;/b&gt;" style="text;strokeColor=none;align=center;fillColor=none;html=1;verticalAlign=middle;whiteSpace=wrap;rounded=0;shadow=0;" parent="XQVcX5hq3e3qukLkaY1j-42" vertex="1">
          <mxGeometry y="163" width="120" height="30" as="geometry" />
        </mxCell>
        <mxCell id="XQVcX5hq3e3qukLkaY1j-36" value="&lt;b&gt;&lt;font style=&quot;font-size: 30px;&quot;&gt;Model A&lt;/font&gt;&lt;/b&gt;" style="text;strokeColor=none;align=center;fillColor=none;html=1;verticalAlign=middle;whiteSpace=wrap;rounded=0;shadow=0;" parent="XQVcX5hq3e3qukLkaY1j-42" vertex="1">
          <mxGeometry y="40" width="120" height="30" as="geometry" />
        </mxCell>
        <mxCell id="XQVcX5hq3e3qukLkaY1j-40" value="" style="rounded=1;whiteSpace=wrap;html=1;fillColor=none;strokeColor=#b85450;strokeWidth=5;dashed=1;shadow=0;" parent="XQVcX5hq3e3qukLkaY1j-42" vertex="1">
          <mxGeometry x="145" y="120" width="310" height="120" as="geometry" />
        </mxCell>
        <mxCell id="XQVcX5hq3e3qukLkaY1j-41" value="" style="rounded=1;whiteSpace=wrap;html=1;strokeColor=none;fillColor=#d8e7d5;" parent="XQVcX5hq3e3qukLkaY1j-42" vertex="1">
          <mxGeometry x="145" y="116" width="315" height="17" as="geometry" />
        </mxCell>
        <mxCell id="XQVcX5hq3e3qukLkaY1j-43" value="&lt;b&gt;&lt;font style=&quot;font-size: 30px;&quot;&gt;Cost = 38ms&lt;/font&gt;&lt;/b&gt;" style="text;strokeColor=none;align=center;fillColor=none;html=1;verticalAlign=middle;whiteSpace=wrap;rounded=0;shadow=0;" parent="1" vertex="1">
          <mxGeometry x="440" y="585" width="360" height="30" as="geometry" />
        </mxCell>
        <mxCell id="XQVcX5hq3e3qukLkaY1j-44" value="&lt;b&gt;&lt;font style=&quot;font-size: 30px;&quot;&gt;Margin of A:&lt;br&gt;40 - 38 = &lt;font color=&quot;#009900&quot;&gt;2ms&lt;/font&gt;&lt;br&gt;&lt;/font&gt;&lt;/b&gt;" style="text;strokeColor=none;align=center;fillColor=none;html=1;verticalAlign=middle;whiteSpace=wrap;rounded=0;shadow=0;" parent="1" vertex="1">
          <mxGeometry x="450" y="675" width="360" height="30" as="geometry" />
        </mxCell>
        <mxCell id="XQVcX5hq3e3qukLkaY1j-87" value="" style="endArrow=none;dashed=1;html=1;dashPattern=1 3;strokeWidth=2;rounded=0;shadow=0;" parent="1" edge="1">
          <mxGeometry width="50" height="50" relative="1" as="geometry">
            <mxPoint x="-290" y="800" as="sourcePoint" />
            <mxPoint x="530" y="800" as="targetPoint" />
          </mxGeometry>
        </mxCell>
        <mxCell id="XQVcX5hq3e3qukLkaY1j-88" value="" style="shape=flexArrow;endArrow=classic;html=1;rounded=0;width=45;endSize=9.07;endWidth=42;shadow=0;" parent="1" edge="1">
          <mxGeometry width="50" height="50" relative="1" as="geometry">
            <mxPoint x="610" y="775" as="sourcePoint" />
            <mxPoint x="610" y="845" as="targetPoint" />
          </mxGeometry>
        </mxCell>
        <mxCell id="XQVcX5hq3e3qukLkaY1j-89" value="&lt;b&gt;&lt;font style=&quot;font-size: 30px;&quot;&gt;Add B3&lt;/font&gt;&lt;/b&gt;" style="text;strokeColor=none;align=center;fillColor=none;html=1;verticalAlign=middle;whiteSpace=wrap;rounded=0;shadow=0;" parent="1" vertex="1">
          <mxGeometry x="610" y="785" width="159" height="30" as="geometry" />
        </mxCell>
        <mxCell id="XQVcX5hq3e3qukLkaY1j-90" value="" style="group" parent="1" vertex="1" connectable="0">
          <mxGeometry x="-280" y="830" width="800" height="255" as="geometry" />
        </mxCell>
        <mxCell id="XQVcX5hq3e3qukLkaY1j-112" value="" style="rounded=1;whiteSpace=wrap;html=1;fillColor=#f8cecc;strokeColor=#b85450;" parent="XQVcX5hq3e3qukLkaY1j-90" vertex="1">
          <mxGeometry x="-10" y="-15" width="810" height="270" as="geometry" />
        </mxCell>
        <mxCell id="XQVcX5hq3e3qukLkaY1j-91" value="" style="rounded=1;whiteSpace=wrap;html=1;fillColor=none;dashed=1;dashPattern=8 8;shadow=0;" parent="XQVcX5hq3e3qukLkaY1j-90" vertex="1">
          <mxGeometry x="160" y="15" width="590" height="90" as="geometry" />
        </mxCell>
        <mxCell id="XQVcX5hq3e3qukLkaY1j-92" value="" style="rounded=1;whiteSpace=wrap;html=1;fillColor=none;dashed=1;dashPattern=8 8;shadow=0;" parent="XQVcX5hq3e3qukLkaY1j-90" vertex="1">
          <mxGeometry x="160" y="133" width="590" height="90" as="geometry" />
        </mxCell>
        <mxCell id="XQVcX5hq3e3qukLkaY1j-93" value="&lt;font size=&quot;1&quot; style=&quot;&quot;&gt;&lt;b style=&quot;font-size: 25px;&quot;&gt;A1&lt;/b&gt;&lt;/font&gt;" style="rounded=1;whiteSpace=wrap;html=1;fillColor=#fff2cc;strokeColor=#d6b656;shadow=0;" parent="XQVcX5hq3e3qukLkaY1j-90" vertex="1">
          <mxGeometry x="180" y="30" width="120" height="60" as="geometry" />
        </mxCell>
        <mxCell id="XQVcX5hq3e3qukLkaY1j-94" value="&lt;b style=&quot;border-color: var(--border-color); font-size: 25px;&quot;&gt;B1&lt;/b&gt;" style="rounded=1;whiteSpace=wrap;html=1;fillColor=#dae8fc;strokeColor=#6c8ebf;shadow=0;" parent="XQVcX5hq3e3qukLkaY1j-90" vertex="1">
          <mxGeometry x="180" y="148" width="120" height="60" as="geometry" />
        </mxCell>
        <mxCell id="XQVcX5hq3e3qukLkaY1j-95" value="&lt;b style=&quot;border-color: var(--border-color); font-size: 25px;&quot;&gt;A2&lt;/b&gt;" style="rounded=1;whiteSpace=wrap;html=1;fillColor=#fff2cc;strokeColor=#d6b656;shadow=0;" parent="XQVcX5hq3e3qukLkaY1j-90" vertex="1">
          <mxGeometry x="320" y="30" width="120" height="60" as="geometry" />
        </mxCell>
        <mxCell id="XQVcX5hq3e3qukLkaY1j-96" value="&lt;b style=&quot;border-color: var(--border-color); font-size: 25px;&quot;&gt;A3&lt;/b&gt;" style="rounded=1;whiteSpace=wrap;html=1;fillColor=#fff2cc;strokeColor=#d6b656;shadow=0;" parent="XQVcX5hq3e3qukLkaY1j-90" vertex="1">
          <mxGeometry x="463.5" y="30" width="120" height="60" as="geometry" />
        </mxCell>
        <mxCell id="XQVcX5hq3e3qukLkaY1j-97" value="&lt;b style=&quot;border-color: var(--border-color); font-size: 25px;&quot;&gt;A4&lt;/b&gt;" style="rounded=1;whiteSpace=wrap;html=1;fillColor=#fff2cc;strokeColor=#d6b656;shadow=0;" parent="XQVcX5hq3e3qukLkaY1j-90" vertex="1">
          <mxGeometry x="610" y="30" width="120" height="60" as="geometry" />
        </mxCell>
        <mxCell id="XQVcX5hq3e3qukLkaY1j-98" value="&lt;b style=&quot;border-color: var(--border-color); font-size: 25px;&quot;&gt;B2&lt;/b&gt;" style="rounded=1;whiteSpace=wrap;html=1;fillColor=#dae8fc;strokeColor=#6c8ebf;shadow=0;" parent="XQVcX5hq3e3qukLkaY1j-90" vertex="1">
          <mxGeometry x="320" y="148" width="120" height="60" as="geometry" />
        </mxCell>
        <mxCell id="XQVcX5hq3e3qukLkaY1j-99" value="&lt;b style=&quot;border-color: var(--border-color); font-size: 25px;&quot;&gt;B3&lt;/b&gt;" style="rounded=1;whiteSpace=wrap;html=1;fillColor=#dae8fc;strokeColor=#6c8ebf;shadow=0;" parent="XQVcX5hq3e3qukLkaY1j-90" vertex="1">
          <mxGeometry x="464" y="148" width="120" height="60" as="geometry" />
        </mxCell>
        <mxCell id="XQVcX5hq3e3qukLkaY1j-100" value="&lt;b style=&quot;border-color: var(--border-color); font-size: 25px;&quot;&gt;B4&lt;/b&gt;" style="rounded=1;whiteSpace=wrap;html=1;fillColor=#dae8fc;strokeColor=#6c8ebf;shadow=0;" parent="XQVcX5hq3e3qukLkaY1j-90" vertex="1">
          <mxGeometry x="610" y="148" width="120" height="60" as="geometry" />
        </mxCell>
        <mxCell id="XQVcX5hq3e3qukLkaY1j-101" value="" style="rounded=1;whiteSpace=wrap;html=1;fillColor=none;strokeColor=#b85450;strokeWidth=5;dashed=1;shadow=0;" parent="XQVcX5hq3e3qukLkaY1j-90" vertex="1">
          <mxGeometry x="145" width="620" height="120" as="geometry" />
        </mxCell>
        <mxCell id="XQVcX5hq3e3qukLkaY1j-102" value="&lt;b&gt;&lt;font style=&quot;font-size: 30px;&quot;&gt;Model B&lt;/font&gt;&lt;/b&gt;" style="text;strokeColor=none;align=center;fillColor=none;html=1;verticalAlign=middle;whiteSpace=wrap;rounded=0;shadow=0;" parent="XQVcX5hq3e3qukLkaY1j-90" vertex="1">
          <mxGeometry y="163" width="120" height="30" as="geometry" />
        </mxCell>
        <mxCell id="XQVcX5hq3e3qukLkaY1j-103" value="&lt;b&gt;&lt;font style=&quot;font-size: 30px;&quot;&gt;Model A&lt;/font&gt;&lt;/b&gt;" style="text;strokeColor=none;align=center;fillColor=none;html=1;verticalAlign=middle;whiteSpace=wrap;rounded=0;shadow=0;" parent="XQVcX5hq3e3qukLkaY1j-90" vertex="1">
          <mxGeometry y="40" width="120" height="30" as="geometry" />
        </mxCell>
        <mxCell id="XQVcX5hq3e3qukLkaY1j-104" value="" style="rounded=1;whiteSpace=wrap;html=1;fillColor=none;strokeColor=#b85450;strokeWidth=5;dashed=1;shadow=0;" parent="XQVcX5hq3e3qukLkaY1j-90" vertex="1">
          <mxGeometry x="145" y="120" width="455" height="120" as="geometry" />
        </mxCell>
        <mxCell id="XQVcX5hq3e3qukLkaY1j-105" value="" style="rounded=1;whiteSpace=wrap;html=1;strokeColor=none;fillColor=#f2d0cd;" parent="XQVcX5hq3e3qukLkaY1j-90" vertex="1">
          <mxGeometry x="145" y="116" width="455" height="17" as="geometry" />
        </mxCell>
        <mxCell id="XQVcX5hq3e3qukLkaY1j-106" value="&lt;b&gt;&lt;font style=&quot;font-size: 30px;&quot;&gt;Cost = 45ms&lt;/font&gt;&lt;/b&gt;" style="text;strokeColor=none;align=center;fillColor=none;html=1;verticalAlign=middle;whiteSpace=wrap;rounded=0;shadow=0;" parent="1" vertex="1">
          <mxGeometry x="440" y="880" width="360" height="30" as="geometry" />
        </mxCell>
        <mxCell id="XQVcX5hq3e3qukLkaY1j-107" value="&lt;b&gt;&lt;font style=&quot;font-size: 30px;&quot;&gt;Margin of A:&lt;br&gt;40 - 45 = &lt;font color=&quot;#cc0000&quot;&gt;-5ms&lt;/font&gt;&lt;br&gt;&lt;/font&gt;&lt;/b&gt;" style="text;strokeColor=none;align=center;fillColor=none;html=1;verticalAlign=middle;whiteSpace=wrap;rounded=0;shadow=0;" parent="1" vertex="1">
          <mxGeometry x="450" y="970" width="360" height="30" as="geometry" />
        </mxCell>
        <mxCell id="ba-7oyt0z8voXFTzTS6v-2" value="" style="rounded=1;whiteSpace=wrap;html=1;fillColor=none;dashed=1;dashPattern=8 8;shadow=0;" parent="1" vertex="1">
          <mxGeometry x="-990" y="285" width="590" height="90" as="geometry" />
        </mxCell>
        <mxCell id="ba-7oyt0z8voXFTzTS6v-3" value="" style="rounded=1;whiteSpace=wrap;html=1;fillColor=none;strokeColor=#b85450;strokeWidth=5;dashed=1;shadow=0;fontSize=30;" parent="1" vertex="1">
          <mxGeometry x="-1020" y="160" width="80" height="50" as="geometry" />
        </mxCell>
        <mxCell id="ba-7oyt0z8voXFTzTS6v-4" value="" style="rounded=1;whiteSpace=wrap;html=1;fillColor=none;dashed=1;dashPattern=8 8;shadow=0;" parent="1" vertex="1">
          <mxGeometry x="-990" y="403" width="590" height="90" as="geometry" />
        </mxCell>
        <mxCell id="ba-7oyt0z8voXFTzTS6v-5" value="&lt;font size=&quot;1&quot; style=&quot;&quot;&gt;&lt;b style=&quot;font-size: 25px;&quot;&gt;A1&lt;/b&gt;&lt;/font&gt;" style="rounded=1;whiteSpace=wrap;html=1;fillColor=#fff2cc;strokeColor=#d6b656;shadow=0;" parent="1" vertex="1">
          <mxGeometry x="-970" y="300" width="120" height="60" as="geometry" />
        </mxCell>
        <mxCell id="ba-7oyt0z8voXFTzTS6v-6" value="&lt;b style=&quot;border-color: var(--border-color); font-size: 25px;&quot;&gt;B1&lt;/b&gt;" style="rounded=1;whiteSpace=wrap;html=1;fillColor=#dae8fc;strokeColor=#6c8ebf;shadow=0;" parent="1" vertex="1">
          <mxGeometry x="-970" y="418" width="120" height="60" as="geometry" />
        </mxCell>
        <mxCell id="ba-7oyt0z8voXFTzTS6v-7" value="&lt;b style=&quot;border-color: var(--border-color); font-size: 25px;&quot;&gt;A2&lt;/b&gt;" style="rounded=1;whiteSpace=wrap;html=1;fillColor=#fff2cc;strokeColor=#d6b656;shadow=0;" parent="1" vertex="1">
          <mxGeometry x="-830" y="300" width="120" height="60" as="geometry" />
        </mxCell>
        <mxCell id="ba-7oyt0z8voXFTzTS6v-8" value="&lt;b style=&quot;border-color: var(--border-color); font-size: 25px;&quot;&gt;A3&lt;/b&gt;" style="rounded=1;whiteSpace=wrap;html=1;fillColor=#fff2cc;strokeColor=#d6b656;shadow=0;" parent="1" vertex="1">
          <mxGeometry x="-686.5" y="300" width="120" height="60" as="geometry" />
        </mxCell>
        <mxCell id="ba-7oyt0z8voXFTzTS6v-9" value="&lt;b style=&quot;border-color: var(--border-color); font-size: 25px;&quot;&gt;A4&lt;/b&gt;" style="rounded=1;whiteSpace=wrap;html=1;fillColor=#fff2cc;strokeColor=#d6b656;shadow=0;" parent="1" vertex="1">
          <mxGeometry x="-540" y="300" width="120" height="60" as="geometry" />
        </mxCell>
        <mxCell id="ba-7oyt0z8voXFTzTS6v-10" value="&lt;b style=&quot;border-color: var(--border-color); font-size: 25px;&quot;&gt;B2&lt;/b&gt;" style="rounded=1;whiteSpace=wrap;html=1;fillColor=#dae8fc;strokeColor=#6c8ebf;shadow=0;" parent="1" vertex="1">
          <mxGeometry x="-830" y="418" width="120" height="60" as="geometry" />
        </mxCell>
        <mxCell id="ba-7oyt0z8voXFTzTS6v-11" value="&lt;b style=&quot;border-color: var(--border-color); font-size: 25px;&quot;&gt;B3&lt;/b&gt;" style="rounded=1;whiteSpace=wrap;html=1;fillColor=#dae8fc;strokeColor=#6c8ebf;shadow=0;" parent="1" vertex="1">
          <mxGeometry x="-686" y="418" width="120" height="60" as="geometry" />
        </mxCell>
        <mxCell id="ba-7oyt0z8voXFTzTS6v-12" value="&lt;b style=&quot;border-color: var(--border-color); font-size: 25px;&quot;&gt;B4&lt;/b&gt;" style="rounded=1;whiteSpace=wrap;html=1;fillColor=#dae8fc;strokeColor=#6c8ebf;shadow=0;" parent="1" vertex="1">
          <mxGeometry x="-540" y="418" width="120" height="60" as="geometry" />
        </mxCell>
        <mxCell id="ba-7oyt0z8voXFTzTS6v-13" value="&lt;font size=&quot;1&quot; style=&quot;&quot;&gt;&lt;b style=&quot;font-size: 25px;&quot;&gt;A1&lt;/b&gt;&lt;/font&gt;" style="rounded=1;whiteSpace=wrap;html=1;fillColor=#fff2cc;strokeColor=#d6b656;shadow=0;" parent="1" vertex="1">
          <mxGeometry x="-1330" y="160" width="80" height="50" as="geometry" />
        </mxCell>
        <mxCell id="ba-7oyt0z8voXFTzTS6v-14" value="&lt;b style=&quot;font-size: 30px;&quot;&gt;&lt;font style=&quot;font-size: 30px;&quot;&gt;Operator&lt;/font&gt;&lt;/b&gt;" style="text;strokeColor=none;align=center;fillColor=none;html=1;verticalAlign=middle;whiteSpace=wrap;rounded=0;shadow=0;fontSize=30;" parent="1" vertex="1">
          <mxGeometry x="-1200" y="170" width="60" height="30" as="geometry" />
        </mxCell>
        <mxCell id="ba-7oyt0z8voXFTzTS6v-15" value="" style="rounded=1;whiteSpace=wrap;html=1;fillColor=none;strokeColor=#b85450;strokeWidth=5;dashed=1;shadow=0;" parent="1" vertex="1">
          <mxGeometry x="-1005" y="270" width="625" height="120" as="geometry" />
        </mxCell>
        <mxCell id="ba-7oyt0z8voXFTzTS6v-16" value="&lt;b style=&quot;font-size: 30px;&quot;&gt;&lt;font style=&quot;font-size: 30px;&quot;&gt;Overlap&lt;/font&gt;&lt;/b&gt;" style="text;strokeColor=none;align=center;fillColor=none;html=1;verticalAlign=middle;whiteSpace=wrap;rounded=0;shadow=0;fontSize=30;" parent="1" vertex="1">
          <mxGeometry x="-920" y="170" width="130" height="30" as="geometry" />
        </mxCell>
        <mxCell id="ba-7oyt0z8voXFTzTS6v-17" value="&lt;b&gt;&lt;font style=&quot;font-size: 30px;&quot;&gt;Model B&lt;/font&gt;&lt;/b&gt;" style="text;strokeColor=none;align=center;fillColor=none;html=1;verticalAlign=middle;whiteSpace=wrap;rounded=0;shadow=0;" parent="1" vertex="1">
          <mxGeometry x="-1150" y="433" width="120" height="30" as="geometry" />
        </mxCell>
        <mxCell id="ba-7oyt0z8voXFTzTS6v-18" value="&lt;b&gt;&lt;font style=&quot;font-size: 30px;&quot;&gt;Model A&lt;/font&gt;&lt;/b&gt;" style="text;strokeColor=none;align=center;fillColor=none;html=1;verticalAlign=middle;whiteSpace=wrap;rounded=0;shadow=0;" parent="1" vertex="1">
          <mxGeometry x="-1150" y="310" width="120" height="30" as="geometry" />
        </mxCell>
        <mxCell id="ba-7oyt0z8voXFTzTS6v-19" value="&lt;b style=&quot;font-size: 35px;&quot;&gt;&lt;font style=&quot;font-size: 35px;&quot;&gt;Round &lt;i&gt;x&lt;/i&gt;&lt;/font&gt;&lt;/b&gt;" style="text;strokeColor=none;align=center;fillColor=none;html=1;verticalAlign=middle;whiteSpace=wrap;rounded=0;shadow=0;" parent="1" vertex="1">
          <mxGeometry x="-1395" y="433" width="180" height="30" as="geometry" />
        </mxCell>
        <mxCell id="ba-7oyt0z8voXFTzTS6v-20" value="" style="endArrow=none;html=1;strokeWidth=2;rounded=0;shadow=0;" parent="1" edge="1">
          <mxGeometry width="50" height="50" relative="1" as="geometry">
            <mxPoint x="-1160" y="633" as="sourcePoint" />
            <mxPoint x="-340" y="633" as="targetPoint" />
          </mxGeometry>
        </mxCell>
        <mxCell id="ba-7oyt0z8voXFTzTS6v-39" value="" style="rounded=1;whiteSpace=wrap;html=1;fillColor=none;dashed=1;dashPattern=8 8;shadow=0;" parent="1" vertex="1">
          <mxGeometry x="-990" y="661" width="590" height="90" as="geometry" />
        </mxCell>
        <mxCell id="ba-7oyt0z8voXFTzTS6v-40" value="" style="rounded=1;whiteSpace=wrap;html=1;fillColor=none;dashed=1;dashPattern=8 8;shadow=0;" parent="1" vertex="1">
          <mxGeometry x="-990" y="779" width="590" height="90" as="geometry" />
        </mxCell>
        <mxCell id="ba-7oyt0z8voXFTzTS6v-41" value="&lt;font size=&quot;1&quot; style=&quot;&quot;&gt;&lt;b style=&quot;font-size: 25px;&quot;&gt;A1&lt;/b&gt;&lt;/font&gt;" style="rounded=1;whiteSpace=wrap;html=1;fillColor=#fff2cc;strokeColor=#d6b656;shadow=0;" parent="1" vertex="1">
          <mxGeometry x="-970" y="676" width="120" height="60" as="geometry" />
        </mxCell>
        <mxCell id="ba-7oyt0z8voXFTzTS6v-42" value="&lt;b style=&quot;border-color: var(--border-color); font-size: 25px;&quot;&gt;B1&lt;/b&gt;" style="rounded=1;whiteSpace=wrap;html=1;fillColor=#dae8fc;strokeColor=#6c8ebf;shadow=0;" parent="1" vertex="1">
          <mxGeometry x="-970" y="794" width="120" height="60" as="geometry" />
        </mxCell>
        <mxCell id="ba-7oyt0z8voXFTzTS6v-43" value="&lt;b style=&quot;border-color: var(--border-color); font-size: 25px;&quot;&gt;A2&lt;/b&gt;" style="rounded=1;whiteSpace=wrap;html=1;fillColor=#fff2cc;strokeColor=#d6b656;shadow=0;" parent="1" vertex="1">
          <mxGeometry x="-830" y="676" width="120" height="60" as="geometry" />
        </mxCell>
        <mxCell id="ba-7oyt0z8voXFTzTS6v-44" value="&lt;b style=&quot;border-color: var(--border-color); font-size: 25px;&quot;&gt;A3&lt;/b&gt;" style="rounded=1;whiteSpace=wrap;html=1;fillColor=#fff2cc;strokeColor=#d6b656;shadow=0;" parent="1" vertex="1">
          <mxGeometry x="-686.5" y="676" width="120" height="60" as="geometry" />
        </mxCell>
        <mxCell id="ba-7oyt0z8voXFTzTS6v-45" value="&lt;b style=&quot;border-color: var(--border-color); font-size: 25px;&quot;&gt;A4&lt;/b&gt;" style="rounded=1;whiteSpace=wrap;html=1;fillColor=#fff2cc;strokeColor=#d6b656;shadow=0;" parent="1" vertex="1">
          <mxGeometry x="-540" y="676" width="120" height="60" as="geometry" />
        </mxCell>
        <mxCell id="ba-7oyt0z8voXFTzTS6v-46" value="&lt;b style=&quot;border-color: var(--border-color); font-size: 25px;&quot;&gt;B2&lt;/b&gt;" style="rounded=1;whiteSpace=wrap;html=1;fillColor=#dae8fc;strokeColor=#6c8ebf;shadow=0;" parent="1" vertex="1">
          <mxGeometry x="-830" y="794" width="120" height="60" as="geometry" />
        </mxCell>
        <mxCell id="ba-7oyt0z8voXFTzTS6v-47" value="&lt;b style=&quot;border-color: var(--border-color); font-size: 25px;&quot;&gt;B4&lt;/b&gt;" style="rounded=1;whiteSpace=wrap;html=1;fillColor=#dae8fc;strokeColor=#6c8ebf;shadow=0;" parent="1" vertex="1">
          <mxGeometry x="-540" y="794" width="120" height="60" as="geometry" />
        </mxCell>
        <mxCell id="ba-7oyt0z8voXFTzTS6v-48" value="" style="rounded=1;whiteSpace=wrap;html=1;fillColor=none;strokeColor=#b85450;strokeWidth=5;dashed=1;shadow=0;" parent="1" vertex="1">
          <mxGeometry x="-1000" y="886" width="620" height="120" as="geometry" />
        </mxCell>
        <mxCell id="ba-7oyt0z8voXFTzTS6v-49" value="&lt;b&gt;&lt;font style=&quot;font-size: 30px;&quot;&gt;Model B&lt;/font&gt;&lt;/b&gt;" style="text;strokeColor=none;align=center;fillColor=none;html=1;verticalAlign=middle;whiteSpace=wrap;rounded=0;shadow=0;" parent="1" vertex="1">
          <mxGeometry x="-1150" y="809" width="120" height="30" as="geometry" />
        </mxCell>
        <mxCell id="ba-7oyt0z8voXFTzTS6v-50" value="&lt;b&gt;&lt;font style=&quot;font-size: 30px;&quot;&gt;Model A&lt;/font&gt;&lt;/b&gt;" style="text;strokeColor=none;align=center;fillColor=none;html=1;verticalAlign=middle;whiteSpace=wrap;rounded=0;shadow=0;" parent="1" vertex="1">
          <mxGeometry x="-1150" y="686" width="120" height="30" as="geometry" />
        </mxCell>
        <mxCell id="ba-7oyt0z8voXFTzTS6v-51" value="" style="rounded=1;whiteSpace=wrap;html=1;fillColor=none;strokeColor=#b85450;strokeWidth=5;dashed=1;shadow=0;" parent="1" vertex="1">
          <mxGeometry x="-690" y="766" width="310" height="120" as="geometry" />
        </mxCell>
        <mxCell id="ba-7oyt0z8voXFTzTS6v-52" value="&lt;b style=&quot;border-color: var(--border-color); font-size: 25px;&quot;&gt;B3&lt;/b&gt;" style="rounded=1;whiteSpace=wrap;html=1;fillColor=#dae8fc;strokeColor=#6c8ebf;shadow=0;" parent="1" vertex="1">
          <mxGeometry x="-686.5" y="794" width="120" height="60" as="geometry" />
        </mxCell>
        <mxCell id="ba-7oyt0z8voXFTzTS6v-53" value="" style="rounded=1;whiteSpace=wrap;html=1;strokeColor=none;fillColor=#FFFFFF;" parent="1" vertex="1">
          <mxGeometry x="-690" y="876" width="320" height="17" as="geometry" />
        </mxCell>
        <mxCell id="ba-7oyt0z8voXFTzTS6v-54" value="" style="rounded=1;whiteSpace=wrap;html=1;opacity=80;" parent="1" vertex="1">
          <mxGeometry x="-970" y="676" width="550" height="60" as="geometry" />
        </mxCell>
        <mxCell id="ba-7oyt0z8voXFTzTS6v-55" value="" style="rounded=1;whiteSpace=wrap;html=1;opacity=80;" parent="1" vertex="1">
          <mxGeometry x="-970" y="794" width="270" height="60" as="geometry" />
        </mxCell>
        <mxCell id="ba-7oyt0z8voXFTzTS6v-57" value="&lt;span&gt;&lt;font style=&quot;font-size: 25px;&quot;&gt;Blocking&lt;/font&gt;&lt;/span&gt;" style="text;strokeColor=none;align=center;fillColor=none;html=1;verticalAlign=middle;whiteSpace=wrap;rounded=0;shadow=0;fontStyle=1" parent="1" vertex="1">
          <mxGeometry x="-1310" y="620" width="170" height="30" as="geometry" />
        </mxCell>
        <mxCell id="ba-7oyt0z8voXFTzTS6v-59" value="&lt;b style=&quot;font-size: 35px;&quot;&gt;&lt;font style=&quot;font-size: 35px;&quot;&gt;Round &lt;i&gt;x+1&lt;/i&gt;&lt;/font&gt;&lt;/b&gt;" style="text;strokeColor=none;align=center;fillColor=none;html=1;verticalAlign=middle;whiteSpace=wrap;rounded=0;shadow=0;" parent="1" vertex="1">
          <mxGeometry x="-1410" y="811" width="210" height="30" as="geometry" />
        </mxCell>
        <mxCell id="ba-7oyt0z8voXFTzTS6v-61" value="" style="rounded=1;whiteSpace=wrap;html=1;fillColor=none;dashed=1;dashPattern=8 8;shadow=0;" parent="1" vertex="1">
          <mxGeometry x="-990" y="520" width="590" height="90" as="geometry" />
        </mxCell>
        <mxCell id="ba-7oyt0z8voXFTzTS6v-62" value="&lt;b style=&quot;border-color: var(--border-color); font-size: 25px;&quot;&gt;C1&lt;/b&gt;" style="rounded=1;whiteSpace=wrap;html=1;fillColor=#f8cecc;strokeColor=#b85450;shadow=0;" parent="1" vertex="1">
          <mxGeometry x="-970" y="535" width="120" height="60" as="geometry" />
        </mxCell>
        <mxCell id="ba-7oyt0z8voXFTzTS6v-63" value="&lt;b style=&quot;border-color: var(--border-color); font-size: 25px;&quot;&gt;C2&lt;/b&gt;" style="rounded=1;whiteSpace=wrap;html=1;fillColor=#f8cecc;strokeColor=#b85450;shadow=0;" parent="1" vertex="1">
          <mxGeometry x="-830" y="535" width="120" height="60" as="geometry" />
        </mxCell>
        <mxCell id="ba-7oyt0z8voXFTzTS6v-64" value="&lt;b style=&quot;border-color: var(--border-color); font-size: 25px;&quot;&gt;C3&lt;/b&gt;" style="rounded=1;whiteSpace=wrap;html=1;fillColor=#f8cecc;strokeColor=#b85450;shadow=0;" parent="1" vertex="1">
          <mxGeometry x="-686" y="535" width="120" height="60" as="geometry" />
        </mxCell>
        <mxCell id="ba-7oyt0z8voXFTzTS6v-65" value="&lt;b style=&quot;border-color: var(--border-color); font-size: 25px;&quot;&gt;C4&lt;/b&gt;" style="rounded=1;whiteSpace=wrap;html=1;fillColor=#f8cecc;strokeColor=#b85450;shadow=0;" parent="1" vertex="1">
          <mxGeometry x="-540" y="535" width="120" height="60" as="geometry" />
        </mxCell>
        <mxCell id="ba-7oyt0z8voXFTzTS6v-66" value="&lt;b&gt;&lt;font style=&quot;font-size: 30px;&quot;&gt;Model C&lt;/font&gt;&lt;/b&gt;" style="text;strokeColor=none;align=center;fillColor=none;html=1;verticalAlign=middle;whiteSpace=wrap;rounded=0;shadow=0;" parent="1" vertex="1">
          <mxGeometry x="-1150" y="550" width="120" height="30" as="geometry" />
        </mxCell>
        <mxCell id="ba-7oyt0z8voXFTzTS6v-73" value="&lt;b style=&quot;border-color: var(--border-color); font-size: 25px;&quot;&gt;C1&lt;/b&gt;" style="rounded=1;whiteSpace=wrap;html=1;fillColor=#f8cecc;strokeColor=#b85450;shadow=0;" parent="1" vertex="1">
          <mxGeometry x="-970" y="916" width="120" height="60" as="geometry" />
        </mxCell>
        <mxCell id="ba-7oyt0z8voXFTzTS6v-74" value="&lt;b style=&quot;border-color: var(--border-color); font-size: 25px;&quot;&gt;C2&lt;/b&gt;" style="rounded=1;whiteSpace=wrap;html=1;fillColor=#f8cecc;strokeColor=#b85450;shadow=0;" parent="1" vertex="1">
          <mxGeometry x="-830" y="916" width="120" height="60" as="geometry" />
        </mxCell>
        <mxCell id="ba-7oyt0z8voXFTzTS6v-75" value="&lt;b style=&quot;border-color: var(--border-color); font-size: 25px;&quot;&gt;C3&lt;/b&gt;" style="rounded=1;whiteSpace=wrap;html=1;fillColor=#f8cecc;strokeColor=#b85450;shadow=0;" parent="1" vertex="1">
          <mxGeometry x="-686" y="916" width="120" height="60" as="geometry" />
        </mxCell>
        <mxCell id="ba-7oyt0z8voXFTzTS6v-76" value="&lt;b style=&quot;border-color: var(--border-color); font-size: 25px;&quot;&gt;C4&lt;/b&gt;" style="rounded=1;whiteSpace=wrap;html=1;fillColor=#f8cecc;strokeColor=#b85450;shadow=0;" parent="1" vertex="1">
          <mxGeometry x="-540" y="916" width="120" height="60" as="geometry" />
        </mxCell>
        <mxCell id="ba-7oyt0z8voXFTzTS6v-77" value="&lt;b&gt;&lt;font style=&quot;font-size: 30px;&quot;&gt;Model C&lt;/font&gt;&lt;/b&gt;" style="text;strokeColor=none;align=center;fillColor=none;html=1;verticalAlign=middle;whiteSpace=wrap;rounded=0;shadow=0;" parent="1" vertex="1">
          <mxGeometry x="-1150" y="931" width="120" height="30" as="geometry" />
        </mxCell>
        <mxCell id="ba-7oyt0z8voXFTzTS6v-78" value="" style="rounded=1;whiteSpace=wrap;html=1;fillColor=none;dashed=1;dashPattern=8 8;shadow=0;" parent="1" vertex="1">
          <mxGeometry x="-990" y="901" width="590" height="90" as="geometry" />
        </mxCell>
        <mxCell id="ba-7oyt0z8voXFTzTS6v-85" value="" style="rounded=1;whiteSpace=wrap;html=1;fillColor=none;strokeColor=#b85450;strokeWidth=5;dashed=1;shadow=0;" parent="1" vertex="1">
          <mxGeometry x="-1004" y="390" width="305" height="120" as="geometry" />
        </mxCell>
        <mxCell id="ba-7oyt0z8voXFTzTS6v-86" value="" style="rounded=1;whiteSpace=wrap;html=1;strokeColor=none;fillColor=#FFFFFF;" parent="1" vertex="1">
          <mxGeometry x="-1000" y="380" width="300" height="17" as="geometry" />
        </mxCell>
        <mxCell id="ba-7oyt0z8voXFTzTS6v-89" value="" style="strokeWidth=2;html=1;shape=mxgraph.flowchart.annotation_2;align=left;labelPosition=right;pointerEvents=1;rotation=-90;" parent="1" vertex="1">
          <mxGeometry x="-881.25" y="642.25" width="50" height="1029" as="geometry" />
        </mxCell>
        <mxCell id="ba-7oyt0z8voXFTzTS6v-90" value="" style="strokeWidth=2;html=1;shape=mxgraph.flowchart.annotation_2;align=left;labelPosition=right;pointerEvents=1;rotation=-90;" parent="1" vertex="1">
          <mxGeometry x="265.12" y="538.63" width="50" height="1236.25" as="geometry" />
        </mxCell>
        <mxCell id="ba-7oyt0z8voXFTzTS6v-91" value="&lt;font size=&quot;1&quot; style=&quot;&quot;&gt;&lt;b style=&quot;font-size: 40px;&quot;&gt;First-stage: Select Model Pairs&lt;/b&gt;&lt;/font&gt;" style="text;strokeColor=none;align=center;fillColor=none;html=1;verticalAlign=middle;whiteSpace=wrap;rounded=0;" parent="1" vertex="1">
          <mxGeometry x="-1165" y="1210" width="630" height="80" as="geometry" />
        </mxCell>
        <mxCell id="ba-7oyt0z8voXFTzTS6v-92" value="&lt;font size=&quot;1&quot; style=&quot;&quot;&gt;&lt;b style=&quot;font-size: 40px;&quot;&gt;Second-stage: Determine Overlapping Operators&lt;/b&gt;&lt;/font&gt;" style="text;strokeColor=none;align=center;fillColor=none;html=1;verticalAlign=middle;whiteSpace=wrap;rounded=0;" parent="1" vertex="1">
          <mxGeometry x="-50" y="1210" width="700" height="80" as="geometry" />
        </mxCell>
        <mxCell id="ba-7oyt0z8voXFTzTS6v-93" value="" style="strokeWidth=2;html=1;shape=mxgraph.flowchart.annotation_2;align=left;labelPosition=right;pointerEvents=1;rotation=0;" parent="1" vertex="1">
          <mxGeometry x="-1459" y="250" width="50" height="870" as="geometry" />
        </mxCell>
        <mxCell id="ba-7oyt0z8voXFTzTS6v-94" value="&lt;font size=&quot;1&quot; style=&quot;&quot;&gt;&lt;b style=&quot;font-size: 40px;&quot;&gt;Multiple &lt;br&gt;Rounds&lt;br&gt;&lt;/b&gt;&lt;/font&gt;" style="text;strokeColor=none;align=center;fillColor=none;html=1;verticalAlign=middle;whiteSpace=wrap;rounded=0;" parent="1" vertex="1">
          <mxGeometry x="-1750" y="645" width="340" height="80" as="geometry" />
        </mxCell>
        <mxCell id="_4KJL_sD0lJyVNj6tXuG-1" value="" style="verticalLabelPosition=bottom;verticalAlign=top;html=1;shape=mxgraph.basic.tick;fillColor=#008a00;strokeColor=#005700;fontColor=#ffffff;" parent="1" vertex="1">
          <mxGeometry x="750" y="570" width="120" height="150" as="geometry" />
        </mxCell>
        <mxCell id="_4KJL_sD0lJyVNj6tXuG-2" value="" style="verticalLabelPosition=bottom;verticalAlign=top;html=1;shape=mxgraph.basic.x;fillColor=#d80073;fontColor=#ffffff;strokeColor=#A50040;" parent="1" vertex="1">
          <mxGeometry x="740" y="870" width="120" height="130" as="geometry" />
        </mxCell>
        <mxCell id="_4KJL_sD0lJyVNj6tXuG-3" value="" style="rounded=1;whiteSpace=wrap;html=1;fillColor=none;fontColor=#ffffff;strokeColor=#B20000;strokeWidth=4;" parent="1" vertex="1">
          <mxGeometry x="654" y="982" width="80" height="40" as="geometry" />
        </mxCell>
      </root>
    </mxGraphModel>
  </diagram>
</mxfile>
